<?xml version="1.0" encoding="UTF-8" standalone="no"?><!DOCTYPE svg PUBLIC "-//W3C//DTD SVG 1.1//EN" "http://www.w3.org/Graphics/SVG/1.1/DTD/svg11.dtd"><svg width="100%" height="100%" viewBox="0 0 1024 1024" version="1.1" xmlns="http://www.w3.org/2000/svg" xmlns:xlink="http://www.w3.org/1999/xlink" xml:space="preserve" xmlns:serif="http://www.serif.com/" style="fill-rule:evenodd;clip-rule:evenodd;stroke-linejoin:round;stroke-miterlimit:2;"><g id="_--Dark" serif:id="тнР Dark"><path d="M495.49,161.731l181.263,0c6.53,0 12.595,3.382 16.028,8.937c3.433,5.555 3.745,12.492 0.825,18.333l-107.207,214.414l90.354,-0c6.628,-0 12.769,3.483 16.171,9.171c3.402,5.689 3.565,12.747 0.429,18.586l-227.066,422.824c-4.338,8.078 -13.86,11.861 -22.559,8.961c-8.698,-2.899 -14.047,-11.639 -12.67,-20.704l42.512,-279.946l-129.132,0c-6.299,0 -12.181,-3.147 -15.676,-8.388c-3.495,-5.24 -4.14,-11.88 -1.72,-17.695l151.052,-362.891c2.924,-7.025 9.787,-11.602 17.396,-11.602Z" style="fill:#0fde41;fill-opacity:0.9;"/></g></svg>