<?xml version="1.0" encoding="UTF-8" standalone="no"?>
<!DOCTYPE svg PUBLIC "-//W3C//DTD SVG 1.1//EN" "http://www.w3.org/Graphics/SVG/1.1/DTD/svg11.dtd">
<svg width="100%" height="100%" viewBox="0 0 1024 1024" version="1.1" xmlns="http://www.w3.org/2000/svg" xmlns:xlink="http://www.w3.org/1999/xlink" xml:space="preserve" xmlns:serif="http://www.serif.com/" style="fill-rule:evenodd;clip-rule:evenodd;stroke-linejoin:round;stroke-miterlimit:2;">
    <path d="M493.51,426.406C495.678,412.126 507.955,401.574 522.398,401.574L677.079,401.574C683.735,401.574 689.901,405.071 693.318,410.783C696.734,416.495 696.897,423.583 693.748,429.446L465.738,854.028C461.382,862.14 451.821,865.938 443.086,863.026C434.351,860.115 428.98,851.339 430.363,842.236C430.363,842.236 479.378,519.465 493.51,426.406Z" style="fill:white;fill-opacity:0.8;"/>
    <path d="M515.466,543.294C510.567,554.147 499.764,561.123 487.857,561.123C444.994,561.126 343.383,561.126 343.383,561.126C337.058,561.126 331.151,557.966 327.642,552.703C324.132,547.442 323.484,540.774 325.914,534.935L477.594,170.535C480.531,163.481 487.422,158.885 495.063,158.885L677.079,158.885C683.637,158.885 689.727,162.281 693.174,167.859C696.621,173.437 696.935,180.403 694.002,186.268C694.002,186.268 552.683,468.786 515.466,543.294Z" style="fill:white;fill-opacity:0.95;"/>
</svg>
