<?xml version="1.0" encoding="UTF-8" standalone="no"?><!DOCTYPE svg PUBLIC "-//W3C//DTD SVG 1.1//EN" "http://www.w3.org/Graphics/SVG/1.1/DTD/svg11.dtd"><svg width="100%" height="100%" viewBox="0 0 1024 1024" version="1.1" xmlns="http://www.w3.org/2000/svg" xmlns:xlink="http://www.w3.org/1999/xlink" xml:space="preserve" xmlns:serif="http://www.serif.com/" style="fill-rule:evenodd;clip-rule:evenodd;stroke-linejoin:round;stroke-miterlimit:2;"><g id="_--Light" serif:id="тнР Light"><path d="M495.562,140.165l192.397,-0c6.932,-0 13.369,3.589 17.013,9.485c3.644,5.896 3.976,13.259 0.876,19.459l-113.793,227.585l95.904,-0c7.036,-0 13.554,3.697 17.165,9.735c3.611,6.038 3.784,13.529 0.455,19.727l-241.013,448.797c-4.605,8.574 -14.713,12.589 -23.945,9.512c-9.233,-3.078 -14.91,-12.355 -13.449,-21.977l45.124,-297.142l-137.065,0c-6.686,0 -12.929,-3.34 -16.639,-8.903c-3.709,-5.562 -4.394,-12.61 -1.825,-18.782l160.331,-385.182c3.104,-7.457 10.387,-12.314 18.464,-12.314Z" style="fill:#fff;"/></g></svg>