<?xml version="1.0" encoding="UTF-8" standalone="no"?>
<!DOCTYPE svg PUBLIC "-//W3C//DTD SVG 1.1//EN" "http://www.w3.org/Graphics/SVG/1.1/DTD/svg11.dtd">
<svg width="100%" height="100%" viewBox="0 0 1024 1024" version="1.1" xmlns="http://www.w3.org/2000/svg" xmlns:xlink="http://www.w3.org/1999/xlink" xml:space="preserve" xmlns:serif="http://www.serif.com/" style="fill-rule:evenodd;clip-rule:evenodd;stroke-linejoin:round;stroke-miterlimit:2;">
    <g transform="matrix(1.00649,0,0,1.00649,-3.22334,-2.77406)">
        <path d="M473.052,561.124L493.51,426.406C495.678,412.126 507.955,401.574 522.398,401.574L586.317,401.574C556.768,460.661 529.116,515.967 515.466,543.294C510.567,554.147 499.764,561.123 487.857,561.123C483.478,561.123 478.486,561.124 473.052,561.124Z" style="fill:rgb(15,219,65);"/>
    </g>
    <path d="M586.317,401.574L677.079,401.574C683.735,401.574 689.901,405.071 693.318,410.783C696.734,416.495 696.897,423.583 693.748,429.446L465.738,854.028C461.382,862.14 451.821,865.938 443.086,863.026C434.351,860.115 428.98,851.339 430.363,842.236L473.052,561.124C478.486,561.124 483.478,561.123 487.857,561.123C499.764,561.123 510.567,554.147 515.466,543.294C529.116,515.967 556.768,460.661 586.317,401.574Z" style="fill:rgb(14,178,59);"/>
    <path d="M473.052,561.124C425.293,561.126 343.383,561.126 343.383,561.126C337.058,561.126 331.151,557.966 327.642,552.703C324.132,547.442 323.484,540.774 325.914,534.935L477.594,170.535C480.531,163.481 487.422,158.885 495.063,158.885L677.079,158.885C683.637,158.885 689.727,162.281 693.174,167.859C696.621,173.437 696.935,180.403 694.002,186.268C694.002,186.268 637.334,299.556 586.317,401.574L522.398,401.574C507.955,401.574 495.678,412.126 493.51,426.406L473.052,561.124Z" style="fill:rgb(14,211,63);"/>
</svg>
